<!--?xml version="1.0" standalone="no"?-->
              <svg id="sw-js-blob-svg" viewBox="0 0 100 100" xmlns="http://www.w3.org/2000/svg" version="1.1">
                    <defs> 
                        <linearGradient id="sw-gradient" x1="0" x2="1" y1="1" y2="0">
                            <stop id="stop1" stop-color="rgba(44, 166, 168, 1)" offset="0%"></stop>
                            <stop id="stop2" stop-color="rgba(29, 138, 153, 1)" offset="100%"></stop>
                        </linearGradient>
                    </defs>
                <path fill="url(#sw-gradient)" d="M15.9,-30.2C17.9,-23.6,14.8,-14.5,18.5,-8C22.3,-1.5,32.9,2.4,37,8.5C41.1,14.7,38.8,23.2,33.6,29.1C28.4,35.1,20.4,38.6,13.1,37.4C5.9,36.2,-0.6,30.2,-8.1,27.9C-15.6,25.6,-24.2,27,-31.1,24.1C-38.1,21.2,-43.5,14.1,-43.2,7C-42.9,0,-37,-7.1,-33.3,-15.2C-29.5,-23.2,-28.1,-32.3,-22.9,-37.5C-17.7,-42.8,-8.9,-44.1,-0.9,-42.6C7,-41.2,14,-36.9,15.9,-30.2Z" width="100%" height="100%" transform="translate(50 50)" style="transition: all 0.3s ease 0s;" stroke-width="0"></path>
              </svg>