<!--?xml version="1.0" standalone="no"?-->
              <svg id="sw-js-blob-svg" viewBox="0 0 100 100" xmlns="http://www.w3.org/2000/svg" version="1.1">
                    <defs> 
                        <linearGradient id="sw-gradient" x1="0" x2="1" y1="1" y2="0">
                            <stop id="stop1" stop-color="rgba(44, 166, 168, 1)" offset="0%"></stop>
                            <stop id="stop2" stop-color="rgba(42, 114, 123, 1)" offset="100%"></stop>
                        </linearGradient>
                    </defs>
                <path fill="url(#sw-gradient)" d="M15.4,-21.5C21.7,-16.5,29.9,-14.5,33.5,-9.5C37,-4.5,35.9,3.4,34.4,12.1C32.8,20.8,30.9,30.4,25.1,33.5C19.3,36.7,9.7,33.5,0.7,32.6C-8.3,31.6,-16.6,33,-22.7,29.9C-28.7,26.8,-32.5,19.3,-33.6,11.9C-34.7,4.5,-33.1,-2.9,-31.3,-10.7C-29.5,-18.6,-27.6,-26.9,-22.3,-32.2C-17.1,-37.6,-8.5,-39.8,-2,-37.1C4.5,-34.3,9,-26.4,15.4,-21.5Z" width="100%" height="100%" transform="translate(50 50)" style="transition: all 0.3s ease 0s;" stroke-width="0"></path>
              </svg>