<!--?xml version="1.0" standalone="no"?-->
              <svg id="sw-js-blob-svg" viewBox="0 0 100 100" xmlns="http://www.w3.org/2000/svg" version="1.1">
                    <defs> 
                        <linearGradient id="sw-gradient" x1="0" x2="1" y1="1" y2="0">
                            <stop id="stop1" stop-color="rgba(29, 138, 153, 1)" offset="0%"></stop>
                            <stop id="stop2" stop-color="rgba(29, 138, 153, 1)" offset="100%"></stop>
                        </linearGradient>
                    </defs>
                <path fill="url(#sw-gradient)" d="M21.2,-32.4C25,-26.4,24,-16.9,23.9,-9.6C23.9,-2.2,24.8,3.1,25.5,10.6C26.2,18,26.7,27.7,22.4,33.8C18.1,39.8,9,42.4,-0.3,42.7C-9.6,43.1,-19.1,41.3,-24.9,35.7C-30.7,30.1,-32.7,20.7,-35.7,11.6C-38.7,2.5,-42.6,-6.3,-40.1,-12.7C-37.5,-19,-28.5,-22.9,-20.7,-27.6C-13,-32.3,-6.5,-37.8,1.1,-39.4C8.7,-40.9,17.4,-38.4,21.2,-32.4Z" width="100%" height="100%" transform="translate(50 50)" style="transition: all 0.3s ease 0s;" stroke-width="0" stroke="url(#sw-gradient)"></path>
              </svg>