<svg xmlns="http://www.w3.org/2000/svg" version="1.1" xmlns:xlink="http://www.w3.org/1999/xlink" xmlns:svgjs="http://svgjs.com/svgjs" width="1440" height="560" preserveAspectRatio="none" viewBox="0 0 1440 560"><g clip-path="url(&quot;#SvgjsClipPath1010&quot;)" fill="none"><rect width="1440" height="560" x="0" y="0" fill="rgba(29, 138, 153, 1)"></rect><circle r="93.335" cx="37.83" cy="-49.63" stroke="#8fbfe0" stroke-opacity="0.62" stroke-width="2"></circle><circle r="93.335" cx="448.93" cy="355.84" stroke="#8fbfe0" stroke-opacity="0.62" stroke-width="2"></circle><circle r="93.335" cx="778.37" cy="660.52" stroke="#8fbfe0" stroke-opacity="0.62" stroke-width="2"></circle><circle r="76.225" cx="125.08" cy="45.66" stroke="#8fbfe0" stroke-opacity="0.62" stroke-width="2"></circle><circle r="64.165" cx="101.14" cy="148.96" stroke="#8fbfe0" stroke-opacity="0.62" stroke-width="2"></circle><circle r="112.565" cx="167.74" cy="359.63" stroke="#8fbfe0" stroke-opacity="0.62" stroke-width="2"></circle><circle r="160.565" cx="676.46" cy="340.53" stroke="#8fbfe0" stroke-opacity="0.62" stroke-width="2"></circle><circle r="71.58" cx="1117.92" cy="535.79" stroke="#8fbfe0" stroke-opacity="0.62" stroke-width="2"></circle><circle r="96.315" cx="727.36" cy="489.44" stroke="#8fbfe0" stroke-opacity="0.62" stroke-width="2"></circle><circle r="172.915" cx="1209.71" cy="145.18" stroke="#8fbfe0" stroke-opacity="0.62" stroke-width="2"></circle><circle r="117.275" cx="1364.23" cy="458.71" stroke="#8fbfe0" stroke-opacity="0.62" stroke-width="2"></circle><circle r="112.47" cx="676.07" cy="536.13" stroke="#8fbfe0" stroke-opacity="0.62" stroke-width="2"></circle><circle r="92.105" cx="130.01" cy="390.67" stroke="#8fbfe0" stroke-opacity="0.62" stroke-width="2"></circle><circle r="107.7" cx="142.1" cy="446.56" stroke="#8fbfe0" stroke-opacity="0.62" stroke-width="2"></circle><circle r="157.375" cx="986.71" cy="209.4" stroke="#8fbfe0" stroke-opacity="0.62" stroke-width="2"></circle><circle r="111.5" cx="367.11" cy="389.29" stroke="#8fbfe0" stroke-opacity="0.62" stroke-width="2"></circle><circle r="129.79" cx="1352.12" cy="342.35" stroke="#8fbfe0" stroke-opacity="0.62" stroke-width="2"></circle><circle r="66.345" cx="1176.57" cy="310.57" stroke="#8fbfe0" stroke-opacity="0.62" stroke-width="2"></circle></g><defs><clipPath id="SvgjsClipPath1010"><rect width="1440" height="560" x="0" y="0"></rect></clipPath></defs></svg>