<svg xmlns="http://www.w3.org/2000/svg" version="1.1" xmlns:xlink="http://www.w3.org/1999/xlink" xmlns:svgjs="http://svgjs.com/svgjs" width="1440" height="600" preserveAspectRatio="none" viewBox="0 0 1440 600"><g clip-path="url(&quot;#SvgjsClipPath1016&quot;)" fill="none"><rect width="1440" height="600" x="0" y="0" fill="rgba(29, 138, 153, 1)"></rect><circle r="100" cx="-66.79" cy="-40.13" stroke="#8fbfe0" stroke-opacity="0.62" stroke-width="2"></circle><circle r="100" cx="351.47" cy="308.27" stroke="#8fbfe0" stroke-opacity="0.62" stroke-width="2"></circle><circle r="100" cx="792.59" cy="739.6" stroke="#8fbfe0" stroke-opacity="0.62" stroke-width="2"></circle><circle r="160.42" cx="390.76" cy="282.21" stroke="#8fbfe0" stroke-opacity="0.62" stroke-width="2"></circle><circle r="73.405" cx="1330.88" cy="83.69" stroke="#8fbfe0" stroke-opacity="0.62" stroke-width="2"></circle><circle r="96.39" cx="587.18" cy="490.16" stroke="#8fbfe0" stroke-opacity="0.62" stroke-width="2"></circle><circle r="128.055" cx="1003.75" cy="408.83" stroke="#8fbfe0" stroke-opacity="0.62" stroke-width="2"></circle><circle r="199.325" cx="1067.81" cy="182.53" stroke="#8fbfe0" stroke-opacity="0.62" stroke-width="2"></circle><circle r="73.765" cx="841.19" cy="489.34" stroke="#8fbfe0" stroke-opacity="0.62" stroke-width="2"></circle><circle r="148.865" cx="934.56" cy="308.21" stroke="#8fbfe0" stroke-opacity="0.62" stroke-width="2"></circle><circle r="152.405" cx="754.72" cy="362.97" stroke="#8fbfe0" stroke-opacity="0.62" stroke-width="2"></circle><circle r="132.155" cx="112.23" cy="115.59" stroke="#8fbfe0" stroke-opacity="0.62" stroke-width="2"></circle><circle r="160.93" cx="1420.98" cy="335.2" stroke="#8fbfe0" stroke-opacity="0.62" stroke-width="2"></circle><circle r="176.64" cx="1115.88" cy="569.47" stroke="#8fbfe0" stroke-opacity="0.62" stroke-width="2"></circle><circle r="93.57" cx="889.68" cy="594.72" stroke="#8fbfe0" stroke-opacity="0.62" stroke-width="2"></circle><circle r="173.73" cx="242.67" cy="61.45" stroke="#8fbfe0" stroke-opacity="0.62" stroke-width="2"></circle><circle r="106.415" cx="464.13" cy="31.98" stroke="#8fbfe0" stroke-opacity="0.62" stroke-width="2"></circle><circle r="54.9" cx="1391.4" cy="394.75" stroke="#8fbfe0" stroke-opacity="0.62" stroke-width="2"></circle></g><defs><clipPath id="SvgjsClipPath1016"><rect width="1440" height="600" x="0" y="0"></rect></clipPath></defs></svg>