<svg xmlns="http://www.w3.org/2000/svg" version="1.1" xmlns:xlink="http://www.w3.org/1999/xlink" xmlns:svgjs="http://svgjs.com/svgjs" width="1440" height="560" preserveAspectRatio="none" viewBox="0 0 1440 560"><g mask="url(&quot;#SvgjsMask1060&quot;)" fill="none"><rect width="1440" height="560" x="0" y="0" fill="rgba(29, 138, 153, 1)"></rect><path d="M226.849,323.95C251.231,324.51,272.35,308.095,284.05,286.697C295.268,266.18,295.898,240.758,282.999,221.254C271.181,203.385,248.261,200.882,226.849,200.206C203.641,199.473,176.564,197.847,164.199,217.501C151.378,237.879,161.811,263.422,174.023,284.171C186.006,304.531,203.23,323.408,226.849,323.95" fill="rgba(97, 178, 196, 0.43)" class="triangle-float2"></path><path d="M1004.215,391.82C1043.666,392.302,1084.459,379.972,1104.758,346.141C1125.558,311.476,1120.713,267.491,1099.442,233.113C1079.27,200.51,1042.541,182.625,1004.215,183.642C967.63,184.612,936.228,206.587,917.353,237.942C897.781,270.454,889.188,310.687,907.842,343.733C926.757,377.242,965.739,391.35,1004.215,391.82" fill="rgba(97, 178, 196, 0.43)" class="triangle-float2"></path><path d="M321.681,354.244C344.993,354.355,361.481,333.945,372.62,313.466C383.156,294.096,388.385,271.005,377.331,251.926C366.301,232.888,343.68,225.111,321.681,225.546C300.51,225.965,280.246,235.684,269.718,254.056C259.246,272.331,261.88,294.286,271.578,312.984C282.254,333.569,298.492,354.133,321.681,354.244" fill="rgba(97, 178, 196, 0.43)" class="triangle-float1"></path><path d="M195.23,560.757C244.792,560.596,289.185,529.063,311.231,484.674C331.185,444.498,318.739,398.152,294.844,360.188C272.732,325.056,236.741,300.094,195.23,300.37C154.164,300.643,119.871,326.813,97.884,361.498C73.872,399.376,58.23,445.136,77.916,485.432C99.78,530.185,145.422,560.919,195.23,560.757" fill="rgba(97, 178, 196, 0.43)" class="triangle-float2"></path><path d="M1306.077,763.77C1365.204,768.597,1426.107,744.158,1456.349,693.121C1487.097,641.231,1479.616,575.782,1447.853,524.507C1417.767,475.94,1363.11,447.186,1306.077,450.538C1254.031,453.597,1214.234,493.212,1190.5,539.632C1169.029,581.626,1171.424,629.703,1193.04,671.623C1216.919,717.932,1254.147,759.53,1306.077,763.77" fill="rgba(97, 178, 196, 0.43)" class="triangle-float3"></path><path d="M1182.999,414.766C1240.531,412.995,1286.774,372.433,1314.852,322.187C1342.153,273.332,1351.029,213.663,1322.178,165.707C1294.065,118.977,1237.394,99.109,1182.999,103.019C1134.901,106.477,1100.757,142.963,1074.643,183.502C1045.202,229.205,1013.229,281.532,1036.295,330.761C1061.92,385.452,1122.631,416.624,1182.999,414.766" fill="rgba(97, 178, 196, 0.43)" class="triangle-float1"></path><path d="M211.831,320.353C248.919,318.529,268.07,279.879,285.617,247.154C301.806,216.961,316.18,183.709,301.763,152.631C285.121,116.758,251.373,88.626,211.831,88.101C171.539,87.566,136.375,114.498,117.667,150.188C100.233,183.448,106.12,222.23,124.302,255.087C143.188,289.217,172.871,322.269,211.831,320.353" fill="rgba(97, 178, 196, 0.43)" class="triangle-float3"></path></g><defs><mask id="SvgjsMask1060"><rect width="1440" height="560" fill="#ffffff"></rect></mask></defs></svg>