<svg width="100%" height="100%" id="svg" viewBox="0 0 1440 400" xmlns="http://www.w3.org/2000/svg" class="transition duration-300 ease-in-out delay-150"><defs><linearGradient id="gradient" x1="47%" y1="0%" x2="53%" y2="100%"><stop offset="5%" stop-color="#3fcac1"></stop><stop offset="95%" stop-color="#1d8a99"></stop></linearGradient></defs><path d="M 0,400 C 0,400 0,133 0,133 C 103.86666666666667,104.86666666666667 207.73333333333335,76.73333333333335 393,89 C 578.2666666666667,101.26666666666665 844.9333333333334,153.9333333333333 1033,168 C 1221.0666666666666,182.0666666666667 1330.5333333333333,157.53333333333336 1440,133 C 1440,133 1440,400 1440,400 Z" stroke="none" stroke-width="0" fill="url(#gradient)" fill-opacity="0.53" class="transition-all duration-300 ease-in-out delay-150 path-0"></path><defs><linearGradient id="gradient" x1="47%" y1="0%" x2="53%" y2="100%"><stop offset="5%" stop-color="#3fcac1"></stop><stop offset="95%" stop-color="#1d8a99"></stop></linearGradient></defs><path d="M 0,400 C 0,400 0,266 0,266 C 165.06666666666666,252.8 330.1333333333333,239.6 508,236 C 685.8666666666667,232.4 876.5333333333333,238.39999999999998 1034,245 C 1191.4666666666667,251.60000000000002 1315.7333333333333,258.8 1440,266 C 1440,266 1440,400 1440,400 Z" stroke="none" stroke-width="0" fill="url(#gradient)" fill-opacity="1" class="transition-all duration-300 ease-in-out delay-150 path-1"></path></svg>