<svg width="100%" height="100%" id="svg" viewBox="0 0 1440 600" xmlns="http://www.w3.org/2000/svg" class="transition duration-300 ease-in-out delay-150"><defs><linearGradient id="gradient" x1="51%" y1="0%" x2="49%" y2="100%"><stop offset="5%" stop-color="#3fcac1"></stop><stop offset="95%" stop-color="#1d8a99"></stop></linearGradient></defs><path d="M 0,600 C 0,600 0,200 0,200 C 152.28571428571428,165.03571428571428 304.57142857142856,130.07142857142858 417,133 C 529.4285714285714,135.92857142857142 602,176.75 715,204 C 828,231.25 981.4285714285716,244.92857142857142 1109,242 C 1236.5714285714284,239.07142857142858 1338.2857142857142,219.53571428571428 1440,200 C 1440,200 1440,600 1440,600 Z" stroke="none" stroke-width="0" fill="url(#gradient)" fill-opacity="0.53" class="transition-all duration-300 ease-in-out delay-150 path-0"></path><defs><linearGradient id="gradient" x1="51%" y1="0%" x2="49%" y2="100%"><stop offset="5%" stop-color="#3fcac1"></stop><stop offset="95%" stop-color="#1d8a99"></stop></linearGradient></defs><path d="M 0,600 C 0,600 0,400 0,400 C 112.03571428571428,382 224.07142857142856,364 334,381 C 443.92857142857144,398 551.7500000000001,450.00000000000006 673,462 C 794.2499999999999,473.99999999999994 928.9285714285713,446 1059,429 C 1189.0714285714287,412 1314.5357142857142,406 1440,400 C 1440,400 1440,600 1440,600 Z" stroke="none" stroke-width="0" fill="url(#gradient)" fill-opacity="1" class="transition-all duration-300 ease-in-out delay-150 path-1"></path></svg>