<!--?xml version="1.0" standalone="no"?-->
              <svg id="sw-js-blob-svg" viewBox="0 0 100 100" xmlns="http://www.w3.org/2000/svg" version="1.1">
                    <defs> 
                        <linearGradient id="sw-gradient" x1="0" x2="1" y1="1" y2="0">
                            <stop id="stop1" stop-color="rgba(44, 166, 168, 1)" offset="0%"></stop>
                            <stop id="stop2" stop-color="rgba(29, 138, 153, 1)" offset="100%"></stop>
                        </linearGradient>
                    </defs>
                <path fill="url(#sw-gradient)" d="M10.4,-11.6C16.1,-10.2,25.3,-10.7,31.3,-6.7C37.2,-2.8,40,5.6,39,13.9C38,22.3,33.2,30.7,26.1,35.3C19,39.8,9.5,40.4,3.7,35.4C-2.2,30.3,-4.4,19.7,-9.1,14.4C-13.8,9,-21,9.1,-26.3,5.6C-31.5,2,-34.8,-5.2,-32.2,-9.6C-29.6,-14.1,-21.2,-15.8,-14.8,-17.1C-8.5,-18.4,-4.2,-19.2,-0.9,-17.9C2.3,-16.6,4.7,-13.1,10.4,-11.6Z" width="100%" height="100%" transform="translate(50 50)" style="transition: all 0.3s ease 0s;" stroke-width="0"></path>
              </svg>