<svg xmlns="http://www.w3.org/2000/svg" version="1.1" xmlns:xlink="http://www.w3.org/1999/xlink" xmlns:svgjs="http://svgjs.com/svgjs" width="1519.2" height="664.2" preserveAspectRatio="none" viewBox="0 0 1519.2 664.2"><g mask="url(&quot;#SvgjsMask1111&quot;)" fill="none"><rect width="1519.2" height="664.2" x="0" y="0" fill="rgba(29, 138, 153, 1)"></rect><path d="M0,594.438C108.731,581.588,189.239,496.872,279.393,434.744C366.394,374.79,460.938,325.336,518.792,236.925C582.594,139.425,653.794,22.729,622.442,-89.494C591.025,-201.95,450.83,-237.249,364.393,-315.748C290.672,-382.699,240.896,-472.473,151.784,-516.927C51.434,-566.987,-60.355,-600.198,-171.158,-582.911C-289.561,-564.439,-399.412,-504.453,-482.385,-417.989C-567.821,-328.958,-651.997,-215.284,-641.961,-92.3C-632.065,28.98,-489.075,89.808,-432.172,197.366C-380.177,295.648,-407.199,430.986,-325.323,506.213C-240.874,583.803,-113.888,607.898,0,594.438" fill="#15636e"></path><path d="M1519.2 1068.3960000000002C1616.8980000000001 1075.8990000000001 1711.6950000000002 1139.633 1804.459 1108.0720000000001 1903.371 1074.42 1994.498 995.3220000000001 2026.405 895.8330000000001 2057.772 798.029 1982.998 701.279 1967.486 599.7460000000001 1952.161 499.43300000000005 1994.9940000000001 385.62800000000004 1935.8600000000001 303.16200000000003 1876.0620000000001 219.77000000000004 1764.4470000000001 189.44000000000005 1662.862 174.93200000000007 1569.5140000000001 161.60000000000002 1481.357 200.70300000000003 1390.3120000000001 225.24600000000004 1296.968 250.40800000000007 1186.135 247.67800000000005 1122.621 320.56300000000005 1059.085 393.47300000000007 1073.184 502.519 1064.7330000000002 598.8580000000001 1056.749 689.8720000000001 1039.336 782.956 1074.67 867.21 1110.53 952.72 1176.298 1028.087 1260.7740000000001 1066.319 1340.8780000000002 1102.573 1431.5320000000002 1061.664 1519.2 1068.3960000000002" fill="#25b1c4"></path></g><defs><mask id="SvgjsMask1111"><rect width="1519.2" height="664.2" fill="#ffffff"></rect></mask></defs></svg>