<svg xmlns="http://www.w3.org/2000/svg" version="1.1" xmlns:xlink="http://www.w3.org/1999/xlink" xmlns:svgjs="http://svgjs.com/svgjs" width="1440" height="560" preserveAspectRatio="none" viewBox="0 0 1440 560"><g mask="url(&quot;#SvgjsMask1034&quot;)" fill="none"><rect width="1440" height="560" x="0" y="0" fill="rgba(29, 138, 153, 1)"></rect><path d="M 0,279 C 72,234.8 216,58.8 360,58 C 504,57.2 576,283 720,275 C 864,267 936,37.6 1080,18 C 1224,-1.6 1368,145.2 1440,177L1440 560L0 560z" fill="rgba(11, 201, 205, 1)"></path><path d="M 0,377 C 57.6,399 172.8,482.6 288,487 C 403.2,491.4 460.8,399.8 576,399 C 691.2,398.2 748.8,502.8 864,483 C 979.2,463.2 1036.8,290.2 1152,300 C 1267.2,309.8 1382.4,485.6 1440,532L1440 560L0 560z" fill="rgba(20, 255, 247, 1)"></path></g><defs><mask id="SvgjsMask1034"><rect width="1440" height="560" fill="#ffffff"></rect></mask></defs></svg>